<?xml version="1.0" encoding="UTF-8"?><svg xmlns="http://www.w3.org/2000/svg" viewBox="0 0 287.79 195.98"><defs><style>.d{fill:#fff;}</style></defs><g id="a"/><g id="b"><g id="c"><g><path class="d" d="M132.4,191.98c-35.02,0-67.94-2.33-92.7-6.57-29.48-5.04-35.66-10.9-35.7-12.19,.04-1.29,6.24-7.16,35.72-12.2,24.76-4.23,57.68-6.56,92.68-6.56s67.92,2.33,92.68,6.56c29.48,5.04,35.68,10.9,35.72,12.2-.04,1.29-6.22,7.15-35.7,12.19-24.76,4.24-57.69,6.57-92.7,6.57Z"/><path d="M132.4,158.46c31.79,0,62.39,1.98,86.16,5.57,22.07,3.33,31.84,7.03,35.97,9.2-4.13,2.17-13.9,5.86-35.97,9.2-23.77,3.59-54.36,5.57-86.16,5.57s-62.39-1.98-86.16-5.57c-22.07-3.33-31.84-7.03-35.97-9.2,4.13-2.17,13.9-5.86,35.97-9.2,23.77-3.59,54.36-5.57,86.16-5.57m0-8C59.28,150.46,0,160.65,0,173.22s59.28,22.76,132.4,22.76,132.41-10.19,132.41-22.76-59.28-22.76-132.41-22.76h0Z"/></g><g><path class="d" d="M132.4,176.44c-31.38,0-53.73-4.29-70.34-13.49-19.76-10.95-30.96-29.05-34.24-55.33-.68-5.32-1.03-10.82-1.03-16.35V8c0-2.21,1.79-4,4-4H234.02c2.21,0,4,1.79,4,4V91.27c0,.13,0,.27,0,.39v.17c-.02,5.31-.36,10.62-1.02,15.77-3.29,26.29-14.49,44.39-34.25,55.35-16.61,9.2-38.96,13.49-70.33,13.49Z"/><path d="M234.02,8V91.27c0,.07,0,.15,0,.2v.36c-.03,5.15-.36,10.29-1,15.3-3.11,24.93-13.65,42.04-32.22,52.33-15.99,8.86-37.72,12.99-68.4,12.99s-52.41-4.13-68.4-12.99c-18.57-10.29-29.1-27.41-32.22-52.36-.66-5.14-.99-10.46-.99-15.82V8H234.02m0-8H30.79c-4.42,0-8,3.58-8,8V91.27c0,5.71,.35,11.34,1.06,16.84,7.38,59.13,53.17,72.33,108.55,72.33s101.17-13.2,108.55-72.33c.68-5.31,1.03-10.75,1.05-16.26,0-.19,0-.39,0-.58V8c0-4.42-3.58-8-8-8h0Z"/></g><g><path class="d" d="M238.48,25.99c26.88,1.35,45.32,16.3,45.32,37.29s-18.44,35.94-45.32,37.29V25.99Z"/><path d="M242.47,30.3c10.55,1.11,19.48,4.48,26.11,9.91,7.33,6,11.21,13.98,11.21,23.07s-3.88,17.08-11.21,23.07c-6.63,5.42-15.55,8.79-26.11,9.91V30.3m-8-8.41V104.03c0,.21,0,.43-.01,.64h.01c33.38,0,53.32-18.53,53.32-41.39s-19.94-41.39-53.32-41.39h0Z"/></g></g></g></svg>